<?xml version="1.0" standalone="no"?>
<!DOCTYPE svg PUBLIC "-//W3C//DTD SVG 20010904//EN"
 "http://www.w3.org/TR/2001/REC-SVG-20010904/DTD/svg10.dtd">
<svg version="1.0" xmlns="http://www.w3.org/2000/svg"
 width="1200.000000pt" height="1200.000000pt" viewBox="0 0 1200.000000 1200.000000"
 preserveAspectRatio="xMidYMid meet">
<metadata>
Created by potrace 1.14, written by Peter Selinger 2001-2017
</metadata>
<g transform="translate(0.000000,1200.000000) scale(0.100000,-0.100000)"
fill="#b71c1c" stroke="none">
<path d="M5630 11989 c-1460 -91 -2800 -685 -3834 -1699 -502 -493 -877 -1009
-1181 -1625 -922 -1870 -801 -4087 319 -5848 780 -1227 1998 -2138 3391 -2537
365 -104 714 -169 1140 -212 171 -17 867 -17 1025 0 676 73 1172 192 1725 414
191 76 589 272 770 378 699 411 1298 946 1783 1595 585 782 967 1695 1116
2665 51 335 61 476 61 900 0 424 -10 565 -61 900 -230 1500 -1013 2849 -2203
3793 -778 618 -1708 1034 -2681 1201 -429 73 -945 102 -1370 75z m416 -731 c6
-7 69 -112 139 -233 70 -121 128 -221 129 -222 1 -2 2 102 2 230 l-1 232 101
3 c77 2 104 -1 113 -11 13 -17 -4 -856 -18 -870 -5 -5 -52 -7 -105 -5 -113 4
-123 10 -189 130 -23 41 -82 145 -132 231 l-90 156 -3 -241 c-1 -158 -6 -246
-13 -255 -15 -18 -192 -18 -207 0 -10 12 3 834 14 866 6 19 241 9 260 -11z
m-454 -63 c4 -33 19 -226 34 -428 19 -269 23 -372 15 -380 -6 -6 -61 -13 -124
-15 -145 -6 -142 -8 -152 135 -3 59 -13 194 -21 298 -27 359 -28 419 -12 432
13 11 126 21 218 19 l35 -1 7 -60z m1439 -25 c97 -21 196 -47 220 -56 163 -64
249 -203 249 -402 0 -184 -89 -331 -247 -409 -64 -32 -81 -36 -150 -35 -93 0
-441 74 -459 98 -9 11 -7 33 6 92 172 762 170 752 192 752 7 0 92 -18 189 -40z
m869 -269 c78 -29 106 -43 107 -57 4 -28 -289 -785 -308 -797 -12 -8 -44 0
-125 30 -60 22 -112 47 -117 55 -6 9 22 94 86 258 52 135 118 308 147 385 29
77 57 146 63 153 14 18 33 15 147 -27z m-3411 -207 c63 -32 115 -97 132 -166
33 -138 -90 -288 -235 -288 -130 1 -236 109 -236 240 0 178 181 292 339 214z
m4059 -115 c59 -34 109 -65 113 -70 3 -5 -16 -111 -42 -236 -26 -126 -66 -320
-89 -433 -23 -113 -47 -211 -54 -217 -9 -10 -33 0 -109 43 -125 71 -132 81
-113 165 13 53 13 67 2 84 -15 22 -154 95 -181 95 -9 0 -40 -22 -69 -50 -29
-27 -58 -50 -65 -50 -26 0 -182 93 -179 107 5 22 641 622 661 622 9 1 65 -26
125 -60z m-5074 -229 c36 -28 66 -55 66 -60 0 -6 -25 -26 -55 -45 -30 -20 -55
-40 -55 -45 0 -8 73 -104 328 -433 51 -65 92 -123 92 -127 0 -10 -45 -24 -131
-41 -84 -17 -109 -2 -210 124 -46 58 -89 106 -96 106 -15 1 -23 -26 -31 -107
l-7 -67 -79 -3 c-86 -3 -96 2 -96 49 0 33 -18 41 -62 28 -91 -25 -112 -124
-40 -192 53 -51 113 -69 220 -66 94 3 97 2 109 -21 18 -36 17 -97 -3 -104 -25
-10 -224 -7 -293 5 -95 15 -155 45 -206 101 -100 111 -96 264 10 356 58 51 99
65 205 67 89 2 96 3 107 26 15 29 17 123 3 150 -6 10 -18 19 -27 19 -46 0
-657 -488 -697 -557 -10 -18 -2 -26 44 -43 122 -46 187 -149 173 -271 -5 -42
-3 -47 18 -52 47 -13 157 -7 234 13 98 25 106 25 139 -1 47 -37 33 -58 -71
-101 -140 -58 -307 -98 -411 -98 -102 0 -154 12 -201 47 -85 65 -72 171 25
203 29 10 34 16 34 44 0 19 -9 45 -22 61 -19 25 -73 55 -97 55 -5 0 -47 -43
-93 -95 -69 -80 -87 -95 -112 -95 -40 0 -149 19 -165 30 -10 6 15 40 95 131
107 123 107 124 78 127 -33 5 -198 -16 -231 -29 -12 -4 -39 -34 -60 -66 -46
-70 -72 -76 -157 -39 -68 30 -69 40 -20 122 45 75 68 99 124 132 43 26 51 27
195 27 83 0 189 1 238 3 l87 2 101 93 c159 145 284 251 414 350 156 119 482
337 505 337 9 0 47 -23 84 -50z m5708 -209 c42 -34 79 -68 81 -75 2 -6 -15
-128 -39 -271 -23 -143 -41 -262 -39 -264 2 -2 19 18 37 45 65 95 234 299 250
302 23 4 158 -106 158 -129 0 -10 -19 -42 -43 -71 -120 -147 -490 -584 -502
-593 -10 -6 -27 3 -62 37 -27 25 -58 50 -70 56 -45 25 -48 58 -18 249 15 98
35 223 45 278 l18 100 -21 -26 c-12 -14 -74 -88 -139 -165 -64 -76 -125 -150
-135 -163 -27 -33 -54 -24 -133 48 l-65 59 24 34 c39 53 501 601 523 621 23
20 12 26 130 -72z m-3201 -98 l25 -78 87 -3 c60 -2 87 -7 87 -15 0 -7 -27 -32
-60 -57 -33 -24 -62 -51 -65 -60 -2 -8 6 -49 19 -90 13 -41 22 -77 20 -79 -2
-3 -35 17 -73 42 -37 26 -72 47 -77 47 -5 0 -38 -23 -74 -51 -57 -45 -65 -49
-68 -32 -2 11 6 44 17 74 32 83 30 92 -44 145 -36 25 -63 49 -60 52 3 4 43 9
88 12 l82 5 13 40 c23 75 44 125 51 125 4 0 18 -35 32 -77z m-1349 -241 c28
-40 59 -49 107 -32 50 18 101 29 101 21 0 -3 -18 -35 -40 -71 -22 -36 -40 -70
-40 -76 0 -7 22 -40 49 -75 27 -35 47 -67 45 -71 -2 -3 -36 2 -74 13 -38 10
-77 19 -85 19 -9 0 -36 -32 -61 -71 -54 -83 -64 -79 -64 26 0 39 -4 76 -9 83
-4 7 -34 20 -67 28 -105 28 -107 33 -28 62 38 13 75 29 82 34 8 7 12 42 12
107 l0 96 25 -30 c13 -16 35 -45 47 -63z m2786 -132 c40 -13 71 -29 69 -35 -2
-5 -36 -21 -76 -35 -39 -14 -76 -32 -81 -40 -5 -8 -10 -48 -10 -87 0 -40 -4
-73 -9 -73 -6 0 -31 29 -56 65 -26 36 -52 65 -59 65 -7 0 -39 -9 -71 -20 -77
-26 -99 -27 -85 -1 5 11 28 41 50 66 22 25 40 54 40 63 0 9 -18 43 -40 76 -60
88 -59 88 58 44 l63 -23 20 25 c11 14 39 47 62 75 l42 50 5 -95 5 -95 73 -25z
m-1069 -234 c314 -42 606 -120 882 -236 1131 -476 1880 -1438 2071 -2660 20
-129 22 -182 22 -470 0 -288 -2 -342 -22 -470 -115 -740 -406 -1340 -902
-1863 -447 -471 -1001 -797 -1615 -952 -190 -48 -335 -76 -335 -65 0 12 28 33
240 185 225 162 249 175 365 215 372 128 798 403 1120 725 500 499 802 1123
901 1860 24 177 24 550 0 730 -97 739 -415 1381 -937 1891 -753 734 -1816
1041 -2859 823 -410 -85 -847 -281 -1190 -532 -848 -623 -1332 -1614 -1297
-2657 16 -480 128 -903 358 -1348 49 -95 89 -178 89 -183 0 -6 -14 -30 -31
-54 -38 -52 -41 -105 -10 -144 11 -14 28 -39 37 -55 15 -27 15 -32 0 -63 -9
-18 -20 -33 -24 -33 -21 0 -183 248 -275 420 -426 802 -503 1781 -209 2650
122 358 334 742 578 1045 576 713 1388 1155 2299 1250 164 18 583 12 744 -9z
m3889 -429 c169 -264 176 -277 180 -360 5 -85 -15 -141 -69 -195 -74 -75 -165
-98 -262 -67 -30 9 -60 16 -66 14 -7 -3 -58 -71 -114 -153 -56 -83 -107 -151
-114 -153 -12 -4 -163 212 -163 233 0 6 30 54 66 105 144 203 136 187 118 221
-9 18 -21 28 -29 24 -8 -3 -71 -42 -140 -87 -98 -64 -128 -79 -139 -70 -30 25
-138 201 -133 216 4 8 64 52 134 97 70 46 229 149 353 230 124 81 230 147 237
148 6 0 70 -91 141 -203z m-6608 171 c0 -13 -7 -48 -15 -78 -8 -30 -12 -63 -9
-72 3 -9 28 -30 57 -46 29 -16 58 -37 66 -45 11 -14 7 -17 -26 -26 -21 -6 -57
-11 -79 -11 -23 0 -46 -6 -52 -12 -6 -7 -16 -42 -22 -78 -6 -36 -15 -71 -19
-78 -7 -12 -28 26 -66 122 l-15 39 -78 -6 c-42 -4 -82 -3 -89 1 -8 5 8 24 48
56 69 56 69 56 25 169 -26 68 -26 68 -5 62 12 -4 46 -22 77 -40 31 -19 61 -31
71 -27 9 3 39 25 66 48 58 50 65 52 65 22z m4708 -51 c23 -20 48 -37 55 -37 7
0 46 21 86 46 40 25 75 43 78 41 2 -3 -9 -40 -26 -82 -18 -43 -28 -82 -24 -90
5 -7 32 -34 61 -60 28 -26 52 -51 52 -56 0 -6 -35 -9 -84 -7 -47 1 -87 0 -90
-3 -3 -3 -21 -39 -40 -80 -38 -84 -36 -85 -73 36 l-18 60 -87 3 c-49 1 -88 6
-88 11 0 9 42 40 97 71 52 29 57 43 38 106 -8 27 -15 62 -15 78 0 33 -5 35 78
-37z m-2227 -37 c431 -25 787 -119 1176 -312 146 -72 177 -93 151 -103 -7 -3
-277 -4 -600 -3 l-585 3 -46 42 c-98 91 -219 124 -375 104 -113 -14 -218 -42
-313 -82 -173 -73 -128 -68 -614 -69 -242 0 -446 4 -454 9 -9 6 16 25 90 67
358 201 788 321 1234 343 83 5 155 9 160 9 6 1 85 -3 176 -8z m-29 -363 c67
-33 137 -106 171 -180 46 -97 57 -178 56 -394 -1 -109 -4 -209 -8 -223 l-7
-25 -242 0 -242 -1 -16 55 c-39 133 -121 192 -278 199 -173 7 -345 -44 -661
-197 -492 -238 -929 -543 -1501 -1047 -83 -73 -196 -176 -251 -229 -56 -52
-108 -95 -117 -95 -23 0 -21 81 3 128 16 31 217 228 526 513 216 200 593 519
845 715 422 329 720 524 1035 675 216 104 350 139 520 136 98 -2 116 -5 167
-30z m-4272 -92 c0 -8 -10 -35 -22 -60 -17 -35 -19 -48 -10 -58 7 -6 141 -77
299 -157 158 -80 289 -150 290 -156 2 -6 -40 -41 -92 -78 l-96 -68 -50 21
c-27 12 -53 20 -58 17 -4 -3 -11 -38 -14 -78 -9 -107 -25 -146 -83 -205 -38
-38 -65 -55 -104 -67 -59 -18 -144 -20 -204 -7 -58 14 -62 23 -43 84 21 68 22
126 1 156 -20 27 -78 54 -103 46 -11 -3 -38 -55 -74 -143 -32 -75 -57 -142
-57 -148 0 -15 -17 -8 323 -125 158 -54 297 -104 309 -110 19 -10 16 -16 -58
-90 -62 -63 -85 -79 -108 -79 -16 0 -139 38 -274 85 -134 47 -252 85 -261 85
-12 0 -23 -20 -39 -75 -24 -81 -27 -115 -12 -115 14 0 611 -109 633 -116 26
-8 21 -30 -22 -87 -75 -100 -85 -107 -139 -107 -27 0 -95 9 -152 21 -56 11
-106 17 -110 12 -15 -15 -70 -223 -70 -262 0 -44 21 -68 69 -77 44 -9 137 39
247 129 94 75 104 76 123 10 13 -44 -9 -81 -91 -159 -123 -115 -229 -170 -352
-180 -79 -7 -122 14 -153 76 -30 57 -29 104 3 287 43 239 43 220 -7 228 -34 6
-45 4 -55 -9 -32 -45 -97 -481 -120 -803 -7 -111 -5 -114 84 -84 34 12 81 21
105 21 62 0 142 -43 180 -97 17 -23 36 -43 43 -43 31 0 118 88 180 183 55 82
82 103 121 89 38 -13 35 -39 -21 -155 -91 -190 -215 -346 -317 -397 -55 -29
-133 -31 -171 -6 -36 24 -53 76 -39 118 16 44 14 83 -5 99 -23 19 -107 16
-139 -5 l-27 -18 7 -146 c8 -178 9 -182 43 -182 22 0 477 47 631 65 38 4 42 3
37 -13 -46 -121 -80 -203 -89 -211 -7 -5 -137 -22 -291 -39 -190 -20 -281 -33
-286 -42 -8 -12 -5 -53 6 -109 6 -29 -1 -30 394 38 236 40 297 48 307 38 10
-10 8 -26 -12 -82 -13 -39 -25 -77 -25 -86 0 -35 -34 -59 -97 -70 -34 -6 -67
-17 -73 -24 -13 -16 15 -164 36 -193 11 -15 16 -15 68 3 55 19 56 19 83 -1 37
-28 52 -74 52 -165 1 -65 -3 -84 -30 -137 -42 -85 -79 -122 -121 -122 -50 0
-102 41 -133 105 -28 56 -43 66 -64 41 -9 -10 -3 -31 26 -92 34 -71 38 -87 38
-159 0 -130 -54 -203 -156 -213 -127 -12 -238 140 -227 311 8 127 94 249 221
313 26 14 50 31 54 40 5 13 -61 208 -78 227 -8 10 -198 -18 -210 -30 -5 -5 3
-57 16 -117 35 -153 35 -152 -34 -214 -33 -28 -66 -52 -74 -52 -11 0 -22 30
-40 108 -186 792 -212 1424 -91 2150 14 85 24 156 21 158 -2 2 -33 -9 -68 -26
-111 -52 -191 -36 -225 46 -19 46 -18 197 2 265 52 178 202 325 389 380 119
35 113 30 170 174 110 277 330 709 370 725 11 5 59 9 108 9 70 1 87 -2 87 -14z
m3368 -47 c-2 -6 -53 -41 -114 -77 -158 -96 -270 -170 -416 -277 -71 -51 -137
-98 -148 -104 -12 -7 -151 -9 -397 -8 l-378 3 105 105 c109 109 238 217 374
314 l78 56 450 0 c336 0 449 -3 446 -12z m2488 -35 c129 -87 239 -177 364
-299 69 -67 123 -124 120 -127 -3 -3 -399 -6 -881 -8 -689 -3 -879 -1 -891 8
-11 10 -17 44 -21 135 -4 77 -14 153 -28 203 -12 44 -24 92 -26 108 l-5 27
650 0 650 0 68 -47z m-4950 -423 c3 -36 10 -72 14 -80 5 -10 37 -21 84 -29 42
-8 79 -17 82 -22 2 -5 -27 -24 -66 -44 -39 -20 -73 -42 -77 -51 -3 -8 0 -49 6
-91 6 -42 9 -78 6 -81 -3 -3 -33 25 -68 61 -34 37 -67 67 -73 67 -7 0 -42 -14
-78 -31 -37 -17 -70 -29 -73 -26 -3 3 11 35 31 71 20 35 36 70 36 78 0 7 -25
41 -56 76 -31 35 -53 66 -50 69 4 4 33 2 64 -5 93 -19 109 -17 128 21 10 17
28 49 42 70 31 46 38 38 48 -53z m6515 8 c40 -73 53 -78 162 -55 37 8 67 11
67 7 0 -5 -22 -35 -50 -67 -27 -32 -50 -64 -50 -71 0 -8 16 -43 36 -78 20 -36
34 -67 31 -70 -2 -3 -31 5 -63 17 -107 39 -109 39 -165 -25 -28 -31 -55 -56
-61 -56 -6 0 -8 27 -4 78 4 42 3 82 -1 89 -4 6 -38 23 -76 38 -37 15 -69 31
-72 35 -6 10 41 26 102 35 62 10 75 24 80 86 5 71 12 99 21 99 5 0 24 -28 43
-62z m1501 -5 c9 -10 19 -29 23 -43 4 -14 23 -63 42 -110 l35 -85 -48 -43
c-27 -23 -186 -154 -354 -291 -234 -192 -308 -247 -317 -238 -14 14 -93 211
-93 232 0 8 16 27 37 42 78 59 86 71 78 111 -4 20 -22 70 -41 111 -30 65 -36
73 -56 68 -49 -12 -134 -17 -145 -10 -11 8 -65 127 -80 175 -3 12 3 21 18 27
13 6 150 20 304 31 154 12 318 25 365 30 157 14 215 12 232 -7z m-6394 -112
c9 -6 -7 -24 -58 -65 -39 -32 -163 -136 -276 -232 l-205 -174 -245 0 -244 0
25 50 c51 101 276 411 308 423 21 9 681 7 695 -2z m1387 -14 c20 -16 28 -35
32 -69 5 -42 3 -47 -23 -64 -42 -26 -74 -56 -74 -69 0 -7 14 -29 30 -50 24
-30 30 -48 30 -84 0 -46 -27 -107 -53 -116 -6 -3 -331 -4 -722 -3 l-710 3 115
76 c196 131 604 353 705 385 28 9 128 13 342 13 300 1 302 1 328 -22z m2522 3
c18 -10 53 -45 78 -77 54 -69 191 -269 229 -335 l28 -48 -1057 0 c-922 0
-1060 2 -1085 15 -62 32 -68 102 -16 188 38 62 36 67 -30 100 -17 9 -34 24
-38 32 -11 28 -7 120 6 133 9 9 230 12 933 12 895 0 921 -1 952 -20z m-2023
-175 c124 -26 168 -62 133 -109 -13 -17 -16 -17 -98 10 -70 23 -102 27 -194
28 -95 1 -123 -3 -202 -28 -100 -31 -123 -28 -123 19 0 29 13 38 75 58 119 38
289 47 409 22z m-51 -163 c27 -12 81 -53 120 -90 70 -67 76 -70 197 -111 455
-152 769 -441 956 -880 90 -208 119 -372 111 -614 -13 -425 -150 -751 -431
-1033 -319 -318 -666 -464 -1105 -464 -189 0 -300 17 -465 71 -244 80 -412
184 -602 374 -307 306 -458 666 -458 1095 0 177 17 285 71 450 156 483 528
854 1007 1005 125 39 189 73 261 137 83 74 120 89 220 84 44 -2 88 -11 118
-24z m4794 -224 c4 -7 20 -62 35 -123 22 -86 25 -112 15 -121 -6 -7 -167 -51
-357 -98 -491 -121 -467 -116 -480 -101 -12 14 -60 204 -60 235 0 13 10 22 28
27 469 119 763 192 784 192 15 1 30 -5 35 -11z m-7299 -7 c-3 -7 -138 -135
-415 -393 -81 -76 -84 -78 -133 -78 -34 0 -52 5 -56 14 -7 18 66 215 132 354
l53 112 211 0 c116 0 210 -4 208 -9z m1666 -29 c-39 -21 -102 -61 -140 -89
-99 -73 -240 -149 -474 -255 l-205 -93 -507 -3 c-304 -1 -508 1 -508 7 0 12
277 242 443 367 l139 104 661 0 662 -1 -71 -37z m3333 -27 c50 -93 155 -362
151 -388 l-3 -22 -771 -3 -772 -2 -133 133 c-140 138 -263 230 -406 301 -40
20 -73 38 -73 41 0 3 444 4 988 3 l987 -3 32 -60z m-3889 -407 c-54 -81 -123
-207 -191 -346 l-62 -127 -3 173 c-1 95 1 187 6 205 8 29 19 37 143 93 74 34
136 60 138 58 2 -2 -12 -27 -31 -56z m6291 -5 c5 -10 15 -69 22 -131 10 -93
10 -115 0 -122 -7 -4 -152 -27 -322 -50 l-309 -43 0 -29 c0 -16 9 -91 21 -165
11 -75 17 -139 12 -144 -14 -14 -192 -34 -204 -22 -5 5 -28 137 -50 292 -36
247 -39 285 -27 298 10 9 99 26 254 49 295 43 565 82 581 83 7 1 16 -7 22 -16z
m-8862 -69 c42 -78 54 -85 121 -73 30 6 66 9 80 7 26 -3 26 -4 -30 -59 -32
-30 -58 -64 -58 -75 0 -11 16 -50 36 -87 20 -38 34 -70 32 -72 -2 -2 -38 14
-81 36 -42 21 -82 39 -87 39 -5 0 -37 -28 -70 -62 l-60 -63 0 40 c0 22 5 57
11 78 14 50 6 70 -36 90 -19 9 -54 28 -77 43 -38 24 -40 28 -22 35 12 4 46 10
78 14 60 8 86 24 86 55 0 38 24 120 34 117 6 -2 25 -30 43 -63z m7532 -24 c12
-71 27 -90 72 -90 46 0 130 -21 123 -31 -3 -5 -31 -22 -63 -38 -82 -42 -86
-49 -71 -119 6 -32 10 -69 8 -81 -3 -22 -7 -20 -66 33 -34 31 -70 56 -78 56
-9 0 -44 -16 -78 -35 -35 -19 -66 -35 -70 -35 -10 0 2 35 30 93 13 27 24 55
24 63 0 7 -28 41 -62 75 l-63 60 98 -6 97 -7 26 59 c46 104 57 104 73 3z
m-5309 -11 c0 -12 -270 -410 -303 -447 l-21 -22 -580 2 -581 3 -3 27 c-2 15 3
36 10 46 15 19 146 144 315 300 l112 102 526 0 c380 0 525 -3 525 -11z m4428
-2 c23 -27 98 -414 87 -448 -6 -19 -22 -19 -703 -17 l-697 3 -41 115 c-40 113
-93 228 -140 302 -13 21 -24 42 -24 48 0 16 1504 14 1518 -3z m-4388 -1692
c-9 -1221 -15 -1534 -25 -1551 -12 -19 -159 -71 -1525 -539 -134 -46 -246 -83
-248 -80 -2 2 17 38 42 81 42 73 46 77 54 55 5 -15 11 -20 16 -13 4 6 1 20 -5
30 -10 16 -7 28 18 73 16 30 138 248 271 485 133 237 242 437 242 445 0 8 -14
34 -31 59 -27 39 -30 52 -27 96 4 44 17 71 90 185 47 74 133 213 192 310 89
148 106 183 106 218 0 61 30 128 115 258 131 199 162 286 223 640 22 122 45
231 53 242 8 11 96 138 196 283 100 144 196 283 215 308 l33 45 4 -50 c2 -27
-2 -738 -9 -1580z m-432 1120 c3 -3 -4 -15 -16 -28 -41 -44 -71 -130 -93 -270
-12 -75 -27 -143 -33 -151 -9 -12 -88 -15 -481 -18 -258 -2 -476 1 -482 5 -10
6 -13 64 -13 232 0 202 2 225 18 235 12 8 169 10 556 6 297 -3 542 -8 544 -11z
m4916 -7 c22 -31 24 -414 2 -444 -13 -17 -29 -19 -193 -22 -98 -1 -401 1 -673
5 l-495 8 -6 185 c-3 102 -10 205 -14 229 -6 32 -5 45 6 52 8 5 315 9 686 9
l672 0 15 -22z m2220 -120 c-5 -85 -10 -117 -23 -130 -11 -11 -82 -27 -233
-52 -119 -20 -219 -36 -222 -36 -3 0 -6 -4 -6 -8 0 -8 174 -65 367 -122 40
-12 76 -27 81 -33 12 -15 1 -192 -13 -206 -6 -5 -111 -28 -235 -51 -123 -23
-226 -43 -228 -45 -8 -8 61 -34 208 -79 85 -26 173 -53 195 -60 l40 -13 -1
-97 c0 -53 -5 -101 -10 -106 -7 -7 -150 38 -420 131 -225 78 -415 147 -422
152 -16 12 -6 206 12 223 6 7 97 26 201 43 233 38 245 41 245 50 0 4 -84 33
-187 65 -104 32 -203 64 -221 72 l-34 14 7 92 c8 124 12 137 38 147 13 5 137
30 277 55 140 26 318 60 395 75 77 16 153 29 168 30 l28 1 -7 -112z m-7305
-442 c9 -11 10 -30 2 -73 -12 -68 -141 -330 -184 -374 l-29 -29 -309 0 -309 0
-14 23 c-17 25 -72 281 -82 381 -5 53 -4 70 7 77 8 5 215 9 460 9 375 0 448
-2 458 -14z m5065 1 c18 -13 18 -18 2 -118 -22 -138 -65 -331 -78 -346 -8 -10
-150 -13 -649 -13 -621 0 -639 1 -649 19 -11 21 -14 351 -3 414 4 26 13 41 27
47 12 5 316 9 677 9 528 1 659 -2 673 -12z m857 -182 c-14 -80 -9 -99 29 -115
16 -7 51 -26 77 -43 l48 -31 -30 -7 c-16 -4 -48 -7 -70 -8 -55 -1 -83 -23 -90
-69 -10 -67 -26 -113 -36 -107 -5 4 -22 32 -38 64 -43 83 -48 86 -133 72 -40
-7 -75 -8 -80 -3 -5 5 14 30 42 58 27 27 52 56 55 65 3 9 -11 49 -31 88 -21
39 -35 73 -32 76 3 3 36 -10 73 -30 37 -19 78 -35 91 -35 15 0 39 18 71 55 27
31 52 50 57 45 5 -5 3 -37 -3 -75z m-7636 25 c30 -27 60 -50 66 -50 7 0 33 13
58 29 96 58 111 50 66 -39 -14 -27 -25 -59 -25 -70 0 -12 25 -45 63 -80 l62
-59 -38 -1 c-21 0 -58 5 -83 11 -40 10 -49 9 -71 -8 -15 -10 -32 -36 -40 -58
-13 -37 -42 -79 -50 -71 -2 2 -8 32 -14 66 -12 78 -24 100 -51 100 -38 0 -148
22 -148 29 0 4 31 25 69 46 39 21 72 43 75 50 2 7 0 30 -5 51 -12 52 -11 104
1 104 5 0 35 -22 65 -50z m2384 -40 c47 -151 134 -316 245 -463 36 -48 66 -90
66 -93 0 -4 -52 -5 -115 -2 -136 6 -152 0 -157 -65 -3 -41 -4 -42 -38 -42
l-35 0 -3 380 c-1 208 1 375 6 370 4 -6 19 -44 31 -85z m2979 -352 l-3 -313
-30 0 c-28 0 -31 3 -40 50 l-11 50 -102 3 c-74 2 -104 6 -108 16 -3 7 22 49
54 92 74 98 153 235 194 337 18 42 36 77 40 77 5 0 7 -141 6 -312z m2750 88
c24 -13 458 -285 642 -403 54 -35 76 -55 78 -72 4 -28 -46 -224 -62 -247 -10
-12 -69 -17 -341 -29 -182 -8 -385 -17 -452 -21 -119 -6 -123 -6 -123 14 0 24
48 210 61 233 6 12 30 18 81 23 44 5 80 14 91 23 21 20 59 144 55 181 -2 20
-18 36 -61 65 -32 21 -61 46 -64 54 -7 17 21 143 39 176 11 21 21 21 56 3z
m-6674 -161 c-1 -76 -32 -153 -116 -292 -68 -113 -91 -133 -156 -133 -76 0
-96 29 -208 312 -30 75 -54 142 -54 148 0 24 55 29 290 27 l245 -2 -1 -60z
m5210 59 c9 -3 16 -15 16 -26 0 -47 -158 -424 -187 -445 -13 -10 -137 -13
-540 -13 -506 0 -523 1 -533 19 -12 23 -14 430 -2 448 8 13 41 14 934 21 163
1 303 -1 312 -4z m-3980 -375 c68 -54 74 -130 13 -196 -65 -72 -187 -12 -187
92 0 99 102 160 174 104z m306 -54 c188 -130 381 -210 629 -261 117 -24 139
-26 307 -21 204 7 286 21 457 77 145 49 281 118 412 209 70 50 102 67 107 58
4 -7 8 -72 8 -145 0 -99 -3 -134 -13 -138 -7 -2 -32 2 -56 11 -84 29 -170 10
-244 -56 l-45 -39 -676 0 -676 0 -42 40 c-53 50 -130 76 -197 65 -95 -15 -86
-28 -89 133 -1 78 0 142 3 142 3 0 55 -34 115 -75z m2230 60 c36 -19 60 -62
60 -110 0 -110 -126 -166 -194 -85 -48 58 -42 136 15 185 35 29 76 32 119 10z
m1207 -220 c7 -22 -175 -295 -274 -412 l-45 -53 -338 0 c-325 0 -340 1 -350
19 -15 29 -13 434 2 449 16 16 999 13 1005 -3z m-3341 -100 c126 -63 150 -229
48 -331 -79 -79 -191 -84 -278 -13 -77 65 -97 167 -48 260 52 100 173 137 278
84z m1769 6 c153 -69 162 -296 15 -371 -83 -43 -172 -34 -236 22 -87 77 -99
199 -28 294 50 68 165 94 249 55z m-2049 -3 c4 -5 -1 -17 -11 -28 -17 -19 -31
-20 -215 -20 -163 0 -200 3 -210 15 -10 12 -10 18 1 31 11 13 41 15 220 12
114 -2 211 -6 215 -10z m2559 -18 l0 -25 -192 -3 c-164 -2 -193 0 -207 14 -9
8 -16 22 -16 30 0 12 32 14 208 12 l207 -3 0 -25z m-4749 -146 l-1 -97 69 -28
c38 -15 73 -32 78 -37 9 -9 -36 -23 -124 -37 -46 -7 -57 -25 -65 -110 -3 -36
-9 -68 -13 -70 -3 -2 -23 25 -44 61 -20 36 -44 68 -52 71 -9 3 -32 1 -52 -5
-67 -19 -122 -25 -122 -12 0 6 21 33 46 60 27 29 46 59 46 72 0 13 -16 52 -36
87 -20 35 -35 66 -32 68 2 3 37 -9 77 -26 41 -17 80 -31 89 -31 8 0 41 29 73
65 32 36 59 65 61 65 1 0 2 -43 2 -96z m6439 19 l63 -68 49 24 c79 39 113 52
113 43 0 -4 -16 -34 -35 -66 -43 -72 -44 -94 -4 -132 32 -30 74 -92 68 -99 -3
-2 -38 3 -79 11 -41 8 -80 12 -86 10 -6 -2 -28 -34 -48 -70 -32 -58 -56 -82
-56 -58 -1 37 -23 148 -31 158 -5 7 -43 20 -84 29 -41 9 -75 21 -75 26 0 6 31
24 70 41 40 18 72 39 75 49 4 10 1 44 -4 76 -12 63 -14 93 -5 93 3 0 34 -30
69 -67z m-2549 42 c6 -2 14 -38 17 -82 3 -43 9 -88 12 -101 l7 -22 -203 2
-204 3 -7 74 c-7 82 2 118 31 129 19 7 325 5 347 -3z m-1760 -75 c1 -41 6 -87
12 -102 l12 -28 -200 0 c-231 0 -220 -5 -220 105 0 111 -9 106 208 103 l187
-3 1 -75z m1333 66 c8 -9 11 -46 9 -103 l-3 -88 -35 0 -35 0 -3 78 c-4 106 -9
110 -170 99 -68 -5 -127 -13 -131 -18 -11 -11 -14 -28 -12 -71 1 -26 5 -33 21
-33 16 0 20 7 20 34 0 22 6 36 16 40 22 8 177 7 191 -2 6 -4 14 -28 18 -55 11
-75 6 -77 -160 -77 -165 0 -155 -7 -155 107 0 66 -2 74 -17 71 -15 -3 -18 -17
-21 -91 l-3 -87 -196 0 -196 0 9 38 c4 20 8 64 9 97 1 33 3 63 4 68 0 4 187 7
415 7 342 0 416 -2 425 -14z m1301 -5 c5 -11 10 -51 10 -90 0 -59 -4 -75 -21
-92 -19 -19 -29 -21 -82 -15 -33 3 -114 6 -180 6 -110 0 -119 1 -112 18 4 9
10 56 13 105 l4 87 179 0 c166 0 179 -1 189 -19z m2513 -10 c41 -17 105 -46
141 -65 61 -32 76 -36 144 -36 42 0 154 9 247 20 179 21 285 25 285 12 0 -8
-99 -243 -105 -250 -2 -2 -72 -10 -156 -18 -83 -7 -153 -15 -155 -17 -2 -2 37
-53 86 -115 57 -70 90 -120 89 -134 0 -29 -71 -190 -85 -195 -6 -2 -85 92
-176 209 -91 117 -174 220 -184 228 -17 14 -76 42 -266 124 -38 16 -58 31 -58
42 0 18 75 191 92 212 14 17 17 16 101 -17z m-5067 -252 c23 -11 48 -27 54
-35 11 -12 -22 -14 -248 -14 -254 0 -262 1 -272 21 -9 15 -8 24 1 35 9 11 51
14 217 14 187 0 210 -2 248 -21z m1797 -7 c20 -13 37 -28 37 -33 0 -5 -313 -9
-781 -9 -620 0 -780 3 -777 13 2 6 24 22 48 35 l45 22 695 -2 695 -3 38 -23z
m760 14 c3 -8 3 -24 0 -35 -5 -21 -10 -21 -259 -21 -140 0 -254 4 -254 8 0 5
21 21 48 35 47 26 49 27 253 27 169 0 208 -3 212 -14z m-13 -86 c21 -13 28
-475 8 -502 -11 -15 -529 -318 -543 -318 -3 0 -5 22 -5 49 0 27 -3 56 -6 65
-12 30 -138 11 -146 -22 -3 -10 -2 -38 1 -62 l6 -45 50 -5 50 -5 -30 -21 c-16
-12 -77 -48 -135 -82 -112 -65 -170 -83 -260 -79 l-55 2 -3 -46 c-2 -33 -10
-52 -25 -66 -28 -25 -390 -233 -406 -233 -11 0 -470 260 -499 283 -10 8 -10
13 1 26 31 36 28 39 -36 38 -51 -1 -74 4 -127 30 -98 48 -283 159 -294 176 -7
11 3 29 39 72 l49 57 -109 -5 c-61 -3 -126 -9 -146 -12 -29 -6 -45 -2 -75 18
-22 13 -74 43 -116 67 -43 24 -78 49 -78 56 0 7 36 46 80 87 44 40 80 79 80
85 0 14 -197 17 -217 4 -7 -4 -13 -37 -15 -75 l-3 -67 -22 15 c-23 16 -23 18
-23 264 0 136 3 251 7 254 10 11 2986 8 3003 -3z m636 -11 c13 -22 -206 -225
-400 -371 -147 -111 -163 -119 -182 -93 -19 25 -21 444 -2 463 16 16 574 17
584 1z m1729 -233 c19 -8 35 -21 35 -28 0 -8 -20 -58 -44 -113 l-44 -100 -49
-6 c-93 -12 -150 -61 -160 -139 -11 -77 36 -64 178 50 129 103 168 123 244
124 191 1 301 -178 236 -382 -56 -173 -215 -302 -372 -302 -69 0 -73 11 -43
116 31 103 38 114 71 114 44 0 93 31 119 76 33 57 29 88 -11 92 -26 3 -46 -11
-134 -87 -117 -102 -172 -133 -247 -139 -132 -11 -260 93 -280 228 -14 94 44
256 127 353 105 122 271 186 374 143z m-5417 -255 c2 -13 1 -44 -3 -68 -5 -37
-11 -46 -38 -58 -18 -8 -228 -62 -467 -120 -426 -104 -813 -202 -918 -232 -81
-23 -55 -27 29 -4 41 10 171 40 289 65 118 25 352 75 520 111 168 36 365 79
437 94 113 24 134 27 144 14 14 -16 5 -221 -10 -236 -5 -5 -29 -11 -53 -13
-90 -9 -682 -55 -883 -69 -115 -8 -306 -22 -423 -31 -117 -8 -245 -14 -285
-12 l-72 3 75 29 c172 67 1617 555 1635 553 13 -1 21 -11 23 -26z m3947 -202
c30 -77 30 -77 139 -81 l69 -3 -56 -45 c-31 -24 -59 -50 -62 -57 -2 -8 9 -47
25 -89 17 -41 30 -77 30 -79 0 -13 -31 -2 -80 30 -30 19 -63 35 -72 35 -9 0
-43 -22 -75 -50 l-58 -50 -3 36 c-2 20 1 50 7 66 24 67 17 83 -59 129 -38 24
-70 46 -70 50 0 7 77 19 126 19 43 0 58 23 74 113 15 82 26 78 65 -24z m-3459
-241 c84 -27 177 -64 206 -82 214 -132 432 -274 436 -284 5 -16 -30 -15 -153
3 -263 39 -607 139 -840 242 l-110 50 -7 118 c-5 77 -4 122 2 130 8 10 46 -3
162 -57 83 -38 220 -92 304 -120z m-494 -60 c8 -22 -10 -153 -26 -193 -45
-106 -140 -185 -209 -171 -63 13 -104 51 -145 136 l-39 80 -23 -62 c-51 -140
-125 -218 -207 -218 -79 0 -125 37 -171 140 l-30 64 -25 -49 c-35 -71 -60 -90
-112 -89 -53 1 -93 29 -132 89 -27 43 -43 56 -43 36 0 -5 -22 -32 -49 -60 -44
-46 -54 -51 -92 -51 -38 0 -48 5 -85 45 -23 25 -47 45 -53 45 -7 0 -25 -10
-41 -22 l-29 -21 -78 30 c-43 17 -114 41 -158 53 -43 11 -85 26 -92 32 -15 12
-17 44 -3 53 11 7 467 46 870 75 396 28 674 50 745 60 101 13 222 12 227 -2z
m178 -347 c21 -32 45 -61 53 -64 8 -3 45 5 83 18 95 33 100 32 64 -17 -17 -24
-42 -60 -56 -80 l-26 -36 41 -68 c23 -37 41 -71 41 -75 0 -4 -34 5 -76 19
l-75 27 -27 -30 c-15 -17 -44 -51 -64 -75 l-37 -45 -1 85 c0 47 -4 90 -8 97
-4 7 -43 25 -87 41 -90 34 -91 31 28 69 76 24 77 26 77 113 0 110 7 113 70 21z
m2692 -23 l3 -93 73 -20 c41 -11 74 -24 74 -30 0 -9 -20 -18 -119 -56 -22 -8
-23 -14 -23 -99 0 -49 -4 -90 -9 -90 -8 0 -23 16 -89 94 -26 31 -32 31 -126
-3 -32 -12 -61 -20 -63 -17 -3 3 15 38 41 77 25 40 46 76 46 79 0 4 -23 36
-52 71 l-51 64 27 3 c15 2 49 -4 77 -13 27 -9 56 -14 64 -11 8 3 33 34 55 71
58 91 69 87 72 -27z m-1232 -178 c0 -5 -12 -45 -27 -87 l-26 -77 38 -31 c21
-16 52 -42 69 -57 l31 -27 -72 -1 c-39 0 -78 -3 -87 -6 -8 -3 -27 -42 -41 -85
-16 -47 -32 -78 -38 -76 -7 2 -21 30 -32 64 -29 86 -36 93 -109 93 -94 0 -97
10 -27 65 69 54 70 59 41 154 -11 35 -18 66 -15 69 3 3 33 -13 66 -36 33 -23
69 -42 80 -42 11 0 44 20 75 45 55 45 74 54 74 35z"/>
<path d="M7046 10933 c-5 -18 -81 -343 -93 -397 -16 -76 118 -75 189 0 104
112 95 329 -17 391 -48 27 -72 29 -79 6z"/>
<path d="M8297 10261 c-37 -38 -67 -76 -67 -85 0 -14 66 -56 88 -56 5 0 19 39
31 88 12 48 24 95 27 105 10 32 -12 17 -79 -52z"/>
<path d="M10023 8834 c-29 -19 -53 -43 -53 -52 0 -29 79 -131 107 -138 39 -10
75 7 89 42 11 27 10 37 -12 85 -24 50 -60 99 -73 99 -3 0 -30 -16 -58 -36z"/>
<path d="M1625 8271 c-36 -54 -30 -71 31 -92 74 -25 100 -45 125 -96 17 -35
20 -55 15 -91 -3 -26 -7 -56 -8 -67 -4 -31 30 -30 63 1 50 48 64 199 24 260
-14 22 -155 104 -202 118 -18 6 -27 0 -48 -33z"/>
<path d="M1015 7526 c-27 -13 -62 -36 -77 -52 -38 -41 -68 -111 -68 -161 0
-40 2 -43 28 -43 40 0 104 20 126 38 21 20 31 43 57 134 33 117 25 127 -66 84z"/>
<path d="M5977 7624 c-4 -4 -7 -121 -7 -259 0 -261 4 -284 41 -270 12 4 14 53
12 268 -2 245 -4 262 -21 265 -10 2 -21 0 -25 -4z"/>
<path d="M6070 7366 c0 -167 4 -267 10 -271 6 -3 19 -3 30 0 20 6 20 14 18
268 l-3 262 -27 3 -28 3 0 -265z"/>
<path d="M5876 7568 c-13 -19 -16 -54 -16 -206 0 -190 6 -222 41 -222 19 0 19
6 17 222 -3 229 -8 255 -42 206z"/>
<path d="M6180 7359 l0 -231 23 14 c21 15 22 21 25 216 2 172 0 202 -14 216
-8 9 -20 16 -25 16 -5 0 -9 -96 -9 -231z"/>
<path d="M5579 7361 c-222 -79 -399 -192 -557 -355 -194 -201 -319 -436 -379
-716 -14 -66 -18 -129 -18 -285 1 -182 3 -209 27 -305 68 -270 193 -492 384
-684 160 -160 369 -287 585 -355 391 -123 853 -57 1201 172 303 198 534 544
615 920 13 61 18 127 18 257 0 199 -19 310 -82 480 -158 426 -444 712 -873
870 -116 43 -116 43 -123 -35 -7 -69 -41 -151 -80 -194 -12 -13 -41 -36 -64
-53 -45 -30 -51 -47 -30 -87 9 -18 29 -28 87 -42 175 -44 384 -180 499 -326
72 -91 151 -244 183 -358 20 -69 23 -103 23 -245 0 -143 -3 -176 -23 -245
-102 -353 -348 -597 -697 -691 -87 -24 -118 -27 -245 -27 -162 0 -239 15 -380
76 -240 104 -441 321 -525 568 -122 357 -35 731 234 1000 139 138 248 198 484
264 53 15 57 17 57 46 0 24 -14 44 -73 102 -79 77 -107 132 -107 209 0 39 -14
78 -28 77 -4 0 -55 -17 -113 -38z m-225 -327 c30 -30 17 -55 -94 -175 l-111
-119 21 -40 c34 -67 6 -106 -68 -94 -33 5 -43 2 -61 -17 -34 -36 -108 -196
-135 -291 -62 -217 -57 -377 20 -610 29 -87 42 -102 92 -103 29 0 39 -6 51
-27 14 -25 14 -29 -7 -57 -12 -17 -22 -34 -22 -39 0 -5 27 -51 60 -102 70
-109 76 -146 33 -180 -17 -13 -38 -20 -57 -18 -28 3 -38 15 -98 118 l-68 115
-53 0 c-89 0 -114 45 -57 100 37 36 38 58 4 172 -92 317 -67 591 80 884 l64
127 -30 45 c-50 77 -13 122 77 97 l46 -13 117 122 c102 106 121 121 149 121
17 0 39 -7 47 -16z m1548 -105 l117 -122 46 13 c37 10 50 10 70 0 36 -19 38
-39 10 -80 -14 -20 -25 -46 -25 -58 0 -12 24 -70 54 -129 150 -301 173 -575
76 -897 -17 -55 -30 -103 -30 -108 0 -4 16 -25 35 -47 40 -44 43 -63 14 -92
-16 -16 -28 -19 -62 -14 -23 3 -47 2 -54 -2 -6 -4 -34 -48 -63 -98 -64 -111
-85 -135 -122 -135 -40 0 -68 32 -68 77 0 29 14 58 62 130 l61 94 -21 29 c-12
16 -22 38 -22 49 0 30 29 53 57 46 38 -9 59 10 87 81 48 119 66 217 66 359 0
186 -39 328 -135 500 -44 80 -56 89 -103 81 -67 -10 -105 40 -67 90 26 35 17
58 -51 124 -161 158 -185 228 -79 230 26 0 47 -18 147 -121z m-160 -1887 c-3
-86 -8 -122 -16 -119 -6 2 -12 25 -14 50 -2 26 -6 47 -9 47 -2 0 -18 -9 -34
-21 -36 -26 -40 -69 -6 -92 18 -13 19 -16 5 -16 -26 -1 -58 35 -58 64 0 26 22
53 74 90 17 12 27 27 25 37 -3 15 -14 11 -68 -24 l-64 -40 6 -90 c4 -67 3 -88
-6 -85 -7 2 -17 14 -23 26 -7 14 -14 19 -18 12 -11 -18 -62 -13 -81 9 -17 18
-16 20 10 43 37 31 30 48 -12 30 l-33 -13 0 -85 c0 -71 -2 -83 -15 -79 -10 4
-15 20 -15 46 0 33 -3 39 -16 34 -9 -3 -20 -6 -26 -6 -6 0 -7 -11 -4 -26 15
-57 -38 -72 -86 -24 -35 35 -30 55 5 22 13 -12 28 -22 35 -22 20 0 24 21 7 40
-16 18 -15 19 31 33 37 10 50 19 52 35 4 26 5 26 -44 8 -70 -24 -114 -29 -114
-12 0 8 14 17 33 21 126 25 294 100 412 182 39 27 70 49 71 49 0 -1 -2 -56 -4
-124z m-1145 -42 c143 -60 328 -94 475 -89 79 3 106 -5 75 -22 -14 -8 -17 -25
-18 -87 0 -73 -1 -76 -16 -54 -10 14 -26 22 -44 22 -50 0 -77 72 -31 83 10 2
27 0 40 -5 18 -6 22 -4 22 12 0 14 -7 20 -22 20 -13 0 -40 3 -60 6 l-38 7 0
-83 c0 -72 -2 -81 -15 -70 -8 7 -15 23 -15 36 0 20 -5 24 -30 24 -16 0 -30 -4
-30 -10 0 -18 -29 -10 -44 12 -20 28 -20 38 -1 38 21 0 20 56 -1 64 -39 15
-42 9 -36 -79 3 -63 2 -85 -7 -85 -7 0 -18 13 -24 29 -7 20 -20 31 -39 35 -19
4 -36 18 -49 41 -21 36 -56 52 -85 41 -19 -7 -12 -51 13 -78 8 -9 13 -23 11
-30 -7 -21 -58 76 -58 111 0 41 18 47 77 27 57 -20 53 -20 53 2 0 14 -20 26
-79 49 l-80 30 2 -86 c2 -91 -16 -132 -21 -48 -3 41 -7 49 -33 62 -16 9 -29
20 -29 25 0 16 -17 12 -24 -6 -3 -8 5 -37 19 -65 14 -27 21 -49 17 -49 -12 0
-70 126 -78 169 -6 31 -5 33 15 26 17 -5 21 -2 21 14 0 12 -9 26 -20 33 -11 7
-20 20 -20 29 0 13 15 7 67 -27 36 -24 100 -57 140 -74z"/>
<path d="M5902 6669 c19 -49 18 -56 -6 -68 -13 -8 -29 -10 -34 -7 -7 4 -9 -11
-6 -45 4 -44 3 -50 -9 -40 -8 6 -21 9 -30 5 -8 -3 -18 -1 -22 5 -3 6 -11 11
-18 11 -6 0 -2 -7 11 -15 12 -9 27 -15 34 -14 43 7 60 -33 35 -81 -8 -14 -16
-35 -19 -47 -5 -20 -3 -21 19 -12 31 11 40 5 24 -15 -7 -8 -21 -13 -32 -11
-14 3 -21 -3 -25 -23 -17 -78 -25 -101 -37 -105 -6 -3 3 -4 21 -2 23 3 32 -1
32 -11 0 -8 -4 -13 -8 -10 -4 2 -14 1 -22 -5 -12 -7 -12 -9 -1 -9 9 0 12 -8 9
-25 -3 -14 0 -29 6 -33 6 -4 17 -19 25 -33 11 -22 18 -26 46 -22 24 3 39 -1
53 -15 14 -14 23 -17 30 -10 20 20 43 1 36 -28 -6 -24 -5 -25 14 -15 11 6 28
8 36 5 9 -3 16 -1 16 5 0 6 -5 11 -11 11 -5 0 -7 5 -4 10 4 6 11 8 16 5 5 -4
9 0 9 8 0 8 -7 17 -15 21 -8 3 -15 14 -15 25 0 15 5 19 16 14 14 -5 14 -3 2
16 -16 26 -42 24 -46 -4 -3 -17 -1 -17 7 -5 10 13 11 13 11 0 0 -23 -36 -65
-44 -51 -4 6 -4 16 0 23 12 18 12 62 0 70 -7 4 -6 15 3 31 16 29 53 33 76 7
20 -22 3 -37 -17 -16 -12 12 -17 11 -34 -1 -18 -15 -18 -15 5 -10 18 5 31 -1
52 -25 31 -33 37 -55 15 -60 -10 -2 -11 -9 -4 -28 l10 -25 14 30 c7 17 13 24
14 17 0 -10 4 -10 20 0 16 11 22 9 34 -7 9 -11 16 -15 17 -10 1 6 5 -15 9 -45
l7 -55 1 69 2 70 35 -34 c19 -19 35 -41 35 -49 0 -13 2 -13 9 -2 17 26 31 -1
33 -62 l1 -62 6 65 c3 36 15 81 25 100 76 141 81 154 81 225 0 48 -6 82 -19
108 -19 39 -16 65 4 28 14 -27 31 -27 58 2 20 21 20 23 3 23 -10 0 -17 -6 -14
-12 2 -7 -1 -15 -7 -19 -11 -7 -70 50 -70 67 0 5 -11 1 -25 -8 -14 -9 -22 -20
-19 -25 3 -5 1 -9 -5 -9 -23 0 -20 22 6 55 17 21 37 35 50 35 12 0 25 5 28 10
4 6 1 9 -7 8 -8 -2 -14 8 -16 25 -3 24 0 27 25 28 l28 1 -30 9 c-25 7 -33 5
-50 -13 -16 -18 -16 -19 -2 -8 17 13 18 12 15 -15 -2 -18 -11 -34 -24 -40 -11
-6 -19 -16 -16 -24 3 -10 -2 -12 -21 -8 -16 5 -29 2 -36 -7 -10 -12 -8 -13 8
-9 26 7 27 -4 4 -30 -17 -19 -17 -20 -1 -14 25 9 33 -12 12 -29 -18 -13 -18
-14 1 -7 11 3 30 18 43 32 l23 26 -6 -27 c-4 -20 -1 -28 9 -28 7 0 16 -11 18
-25 7 -32 -5 -32 -26 0 -16 25 -16 25 -36 5 -25 -25 -26 -34 0 -18 27 17 37 2
15 -22 -10 -11 -15 -23 -12 -26 4 -4 9 1 13 10 6 15 44 24 44 10 0 -18 -38
-49 -56 -46 -15 2 -23 -4 -27 -20 -8 -28 -1 -36 8 -9 3 12 10 21 15 21 19 0
20 -21 1 -55 -16 -31 -19 -33 -24 -15 -7 28 -22 25 -36 -7 -13 -28 -13 -28 8
-9 21 19 21 19 21 0 0 -11 -5 -25 -12 -32 -16 -16 4 -16 21 1 11 10 13 8 7
-13 -3 -14 -6 -31 -6 -38 0 -7 -4 -11 -9 -8 -5 3 -12 -1 -15 -10 -9 -24 -8
-26 14 -19 17 5 20 2 18 -19 -1 -15 -7 -24 -13 -22 -5 2 -9 9 -7 15 2 10 -17
15 -45 12 -20 -3 -15 8 13 33 24 20 25 24 13 44 -14 23 -31 25 -35 4 -1 -7 0
-8 3 -2 9 19 20 1 15 -26 -5 -26 -6 -26 -20 -8 -13 18 -14 18 -7 -4 7 -23 6
-23 -17 -8 -14 9 -28 13 -31 9 -4 -3 -7 2 -7 11 0 12 5 16 15 12 10 -3 18 1
21 12 4 9 12 30 19 47 8 16 11 34 8 39 -4 5 -10 0 -14 -12 -9 -24 -25 -29 -32
-9 -4 9 -6 8 -6 -2 -1 -11 -5 -10 -20 3 -19 17 -20 17 -27 -18 -6 -35 -7 -36
-25 -20 -11 9 -19 28 -19 41 0 12 -5 23 -10 23 -6 0 -8 -11 -4 -25 7 -29 1
-31 -25 -7 -53 47 -53 48 -69 24 -8 -12 -18 -22 -23 -22 -13 0 -11 37 2 45 6
5 4 12 -8 20 -15 11 -16 17 -6 33 8 13 8 23 1 30 -7 7 -6 17 3 33 l12 24 -22
-19 c-13 -12 -18 -23 -13 -28 10 -10 -7 -58 -19 -58 -13 0 -19 33 -9 45 6 7 8
19 5 27 -3 8 3 25 13 38 18 22 18 26 4 48 -8 13 -21 21 -29 18 -8 -3 -17 2
-20 12 -3 9 -13 25 -20 34 -8 9 -12 21 -9 27 4 5 2 12 -4 16 -29 18 1 62 34
49 9 -3 15 5 19 26 5 23 2 35 -15 52 -12 12 -19 15 -16 7z"/>
<path d="M6211 6493 c-1 -12 -36 -53 -45 -53 -3 0 -7 8 -9 18 -3 10 -5 6 -6
-11 -1 -29 -9 -35 -56 -39 -23 -2 -29 1 -27 13 1 9 -5 16 -13 16 -9 0 -14 -6
-11 -13 7 -18 -12 -28 -28 -15 -15 13 -27 5 -20 -13 3 -8 15 -11 30 -8 33 6
32 -20 -3 -48 -29 -23 -25 -23 19 0 25 12 30 11 48 -5 30 -27 24 -10 -7 21
-19 19 -23 29 -15 32 17 5 62 -36 62 -57 0 -13 2 -14 9 -2 6 10 3 20 -12 32
-30 24 -13 37 21 16 16 -9 27 -25 26 -37 0 -11 4 -20 9 -20 5 0 7 13 4 29 -5
24 -2 31 14 36 26 8 35 -1 44 -42 7 -37 -13 -48 -22 -13 -3 11 -9 17 -15 14
-5 -3 -4 -11 2 -19 7 -8 9 -23 5 -34 -7 -24 34 -59 47 -38 4 6 8 17 8 22 0 6
-4 4 -9 -4 -11 -16 -31 -6 -31 16 0 9 6 13 15 9 10 -4 20 6 30 30 8 20 19 33
25 29 13 -8 13 -5 -2 35 -10 31 -12 32 -25 15 -7 -11 -13 -24 -13 -29 0 -6 4
-4 10 4 5 8 12 12 15 8 8 -8 -12 -48 -24 -48 -9 0 -11 6 -35 105 -8 33 -15 54
-15 48z"/>
<path d="M5655 6429 c-35 -34 -51 -36 -60 -10 -3 11 -13 22 -21 25 -10 4 -13
2 -8 -7 16 -28 38 -47 55 -47 10 0 23 8 28 18 18 29 13 -28 -4 -62 -38 -71
-28 -150 28 -233 30 -45 51 -65 41 -39 -4 9 -1 16 6 16 8 0 11 -9 7 -28 -5
-23 -2 -28 11 -27 23 2 43 15 67 45 15 19 16 22 3 11 -16 -12 -18 -11 -18 8 0
21 -1 21 -23 -5 l-24 -28 -5 28 c-4 20 -2 26 8 22 17 -7 18 16 2 32 -9 9 -8
12 5 12 9 0 20 -7 25 -16 5 -9 15 -15 21 -13 8 3 4 15 -13 33 -21 25 -27 28
-40 17 -13 -11 -16 -11 -16 3 0 9 -7 19 -15 22 -8 4 -15 15 -15 25 0 21 16 26
23 7 3 -8 6 -7 6 4 1 9 -3 20 -9 23 -17 11 -11 25 12 25 20 0 20 1 4 19 -22
25 -12 48 12 29 15 -12 16 -11 4 4 -11 14 -17 15 -32 5 -15 -9 -16 -14 -7 -25
9 -11 7 -17 -6 -27 -9 -6 -14 -15 -11 -18 4 -4 -1 -22 -10 -42 -9 -19 -14 -39
-11 -44 5 -9 -13 -27 -20 -19 -2 1 -7 16 -11 32 -5 21 -4 27 5 22 6 -4 11 -3
11 3 0 5 -4 13 -10 16 -5 3 -10 14 -10 23 1 15 2 15 15 -2 18 -24 20 -7 3 29
-14 31 -5 43 19 24 15 -13 15 -12 0 12 -18 28 -12 46 10 28 18 -16 17 -1 -2
17 -17 18 -18 24 -6 43 8 12 12 12 25 2 22 -18 20 2 -1 21 -16 14 -21 13 -48
-13z"/>
<path d="M6092 5720 c-5 -14 -7 -40 -5 -57 5 -32 4 -33 -31 -33 -30 0 -37 4
-42 25 -3 14 -10 25 -15 25 -6 0 -5 -9 1 -20 9 -16 7 -22 -7 -27 -10 -4 -23
-14 -30 -22 -11 -14 -12 -14 -13 -1 0 13 -1 13 -10 0 -5 -8 -12 -11 -16 -7 -4
3 -3 12 2 20 5 7 1 5 -8 -6 -10 -10 -22 -16 -28 -12 -5 3 -10 2 -10 -4 0 -5 6
-14 14 -18 12 -6 13 -16 4 -53 -6 -25 -14 -53 -19 -62 -6 -11 -5 -18 0 -18 5
0 12 -12 15 -26 4 -15 18 -43 31 -62 19 -27 22 -38 12 -45 -9 -6 -8 -7 3 -5 8
3 37 -1 65 -7 27 -6 61 -8 75 -4 19 5 14 7 -24 8 -62 1 -110 30 -136 82 -57
111 27 239 150 227 148 -15 196 -201 72 -284 -29 -20 -30 -22 -11 -27 12 -3
19 -3 16 -1 -3 3 10 21 29 40 19 20 38 53 44 77 6 23 15 50 20 59 7 12 6 20
-3 25 -16 10 -47 70 -47 92 0 13 -2 13 -9 3 -7 -12 -12 -12 -30 -1 -11 8 -21
17 -21 22 0 4 5 5 10 2 6 -3 10 -1 10 5 0 7 -8 9 -21 5 -19 -6 -21 -4 -17 19
4 18 1 26 -8 26 -16 0 -17 9 -4 30 8 12 10 12 10 1 0 -8 3 -12 6 -8 3 3 1 14
-4 24 -10 17 -11 16 -20 -7z"/>
<path d="M5586 5387 c-12 -25 13 -77 41 -88 13 -5 36 -9 49 -9 20 0 24 -4 20
-17 -16 -52 43 -61 419 -62 246 -1 268 4 273 55 2 22 -1 31 -12 31 -9 0 -16
-4 -16 -9 0 -4 -7 -8 -15 -8 -8 0 -15 9 -15 20 0 11 -4 20 -9 20 -5 0 -7 -8
-4 -18 4 -17 -3 -19 -62 -21 -54 -2 -70 1 -81 16 -12 15 -13 16 -8 1 5 -14 -2
-17 -38 -21 -23 -2 9 -5 72 -7 63 -2 103 -5 89 -7 -21 -3 -26 -9 -22 -24 3
-10 0 -19 -6 -19 -6 0 -11 9 -11 20 0 17 -6 20 -37 19 -21 -1 -30 -3 -20 -6 9
-2 17 -10 17 -17 0 -11 -94 -13 -307 -7 -21 1 -33 7 -36 19 -4 16 -5 16 -6 0
-1 -22 -21 -24 -21 -3 0 8 -4 15 -10 15 -5 0 -7 -7 -4 -15 4 -8 2 -15 -4 -15
-5 0 -12 9 -15 20 -5 19 0 20 81 21 48 1 93 1 101 0 11 -2 11 0 0 12 -8 8 -16
12 -19 8 -8 -12 -80 -9 -80 3 0 7 -3 8 -8 1 -4 -6 -30 -9 -60 -7 -44 3 -52 7
-48 21 5 12 2 11 -9 -3 -14 -18 -20 -15 -16 7 1 5 -4 5 -11 0 -7 -4 -23 -9
-36 -11 -19 -2 -23 1 -17 17 3 11 0 23 -6 27 -8 4 -9 3 -5 -4 4 -7 2 -20 -3
-29 -6 -10 -11 -16 -12 -13 0 3 -3 18 -5 35 -7 38 -14 45 -14 13 0 -16 -6 -25
-15 -25 -12 0 -15 8 -10 31 4 23 3 26 -4 11 -8 -18 -9 -17 -13 10 -3 24 -6 27
-12 12z"/>
<path d="M3945 5188 l-150 -172 -3 -260 c-2 -142 1 -263 6 -268 5 -5 29 6 58
26 27 20 86 60 131 91 117 79 114 67 111 448 l-3 308 -150 -173z"/>
<path d="M3472 3804 c-80 -54 -92 -80 -92 -196 0 -92 1 -98 20 -98 11 0 47 18
80 41 l60 41 0 124 c0 68 -3 124 -7 124 -5 0 -32 -17 -61 -36z"/>
<path d="M3230 3594 c-25 -20 -49 -42 -53 -50 -4 -7 -6 -52 -5 -98 l3 -84 55
32 55 32 3 102 c1 56 -1 102 -5 101 -4 0 -28 -16 -53 -35z"/>
<path d="M10475 4833 c-4 -21 -7 -45 -8 -53 -2 -12 17 -16 107 -18 127 -3 128
1 16 67 -88 52 -107 53 -115 4z"/>
<path d="M5370 3963 c-24 -3 -48 -10 -52 -16 -11 -17 -10 -71 2 -101 9 -24 14
-26 69 -26 73 0 83 11 75 76 -7 52 -19 75 -38 72 -6 -1 -31 -3 -56 -5z"/>
<path d="M6115 3961 l-40 -6 0 -58 c0 -33 3 -63 6 -68 3 -6 35 -9 70 -7 l64 3
3 49 c2 27 1 60 -3 73 -6 25 -19 26 -100 14z"/>
<path d="M4560 3940 c-6 -12 -10 -42 -8 -68 l3 -47 70 0 70 0 3 68 3 67 -65 0
c-55 0 -67 -3 -76 -20z"/>
<path d="M4900 3843 l0 -118 115 115 c63 63 115 116 115 117 0 2 -52 3 -115 3
l-115 0 0 -117z"/>
<path d="M5680 3850 c0 -60 3 -110 8 -110 4 0 57 50 117 110 l110 110 -118 0
-117 0 0 -110z"/>
<path d="M6466 3944 c-9 -23 -7 -204 2 -204 4 0 57 50 117 110 l110 110 -112
0 c-92 0 -112 -3 -117 -16z"/>
<path d="M6827 3954 c-12 -12 -8 -99 6 -118 10 -14 25 -17 72 -14 l60 3 0 65
0 65 -65 3 c-36 2 -69 0 -73 -4z"/>
<path d="M7240 3850 c0 -60 3 -110 8 -110 4 0 57 50 117 110 l110 110 -118 0
-117 0 0 -110z"/>
<path d="M4910 3621 c-14 -27 -13 -104 2 -119 7 -7 35 -12 63 -12 62 0 75 11
75 68 0 69 -12 82 -75 82 -43 0 -56 -4 -65 -19z"/>
<path d="M5316 3618 c-8 -33 -7 -171 2 -185 5 -9 43 23 117 97 l110 110 -112
0 c-106 0 -111 -1 -117 -22z"/>
<path d="M5687 3633 c-4 -3 -7 -35 -7 -69 0 -60 2 -64 26 -70 25 -6 101 0 111
9 9 10 15 86 9 111 -6 24 -10 26 -70 26 -34 0 -66 -3 -69 -7z"/>
<path d="M6080 3621 c-10 -21 -14 -201 -4 -201 10 0 224 202 224 211 0 5 -47
9 -105 9 -93 0 -105 -2 -115 -19z"/>
<path d="M6480 3630 c-19 -12 -17 -120 2 -132 18 -11 86 -10 109 2 15 9 19 22
19 69 0 44 -4 60 -16 65 -24 9 -97 7 -114 -4z"/>
<path d="M6824 3627 c-2 -7 -3 -59 -2 -115 l3 -102 115 115 115 115 -113 0
c-84 0 -114 -3 -118 -13z"/>
<path d="M7258 3629 c-14 -8 -18 -23 -18 -68 0 -66 5 -71 75 -71 71 0 75 4 75
75 0 48 -4 64 -16 69 -25 9 -97 6 -116 -5z"/>
<path d="M5348 3323 c-24 -4 -26 -9 -30 -57 -5 -85 -4 -86 60 -86 31 0 62 4
68 8 6 4 14 28 18 54 6 40 4 50 -13 67 -20 20 -42 23 -103 14z"/>
<path d="M5687 3323 c-4 -3 -7 -55 -7 -115 l0 -110 114 109 c63 59 112 111
110 115 -6 10 -208 11 -217 1z"/>
<path d="M6103 3320 c-16 -6 -23 -21 -28 -53 -12 -76 -3 -87 64 -87 73 0 83
11 79 87 l-3 58 -45 2 c-25 1 -55 -2 -67 -7z"/>
<path d="M5712 2990 c-21 -9 -23 -15 -20 -72 l3 -63 60 -3 c47 -3 62 0 72 14
16 22 17 106 1 122 -14 14 -83 15 -116 2z"/>
<path d="M6080 2981 c-12 -23 -14 -221 -2 -221 16 0 224 219 217 229 -4 7 -47
11 -105 11 -88 0 -100 -2 -110 -19z"/>
</g>
</svg>
