<?xml version="1.0" standalone="no"?>
<!DOCTYPE svg PUBLIC "-//W3C//DTD SVG 20010904//EN"
 "http://www.w3.org/TR/2001/REC-SVG-20010904/DTD/svg10.dtd">
<svg version="1.0" xmlns="http://www.w3.org/2000/svg"
 width="300.000000pt" height="300.000000pt" viewBox="0 0 300.000000 300.000000"
 preserveAspectRatio="xMidYMid meet">
<metadata>
Created by potrace 1.14, written by Peter Selinger 2001-2017
</metadata>
<g transform="translate(0.000000,300.000000) scale(0.100000,-0.100000)"
fill="#33691e" stroke="none">
<path d="M1345 2794 c-579 -88 -1000 -476 -1121 -1034 -26 -120 -26 -400 0
-520 117 -539 534 -937 1074 -1026 118 -19 358 -14 472 11 247 54 467 174 646
350 180 179 304 405 359 655 25 114 30 354 11 472 -87 533 -477 947 -1006
1069 -83 20 -361 34 -435 23z m312 -554 c68 -30 110 -65 136 -113 18 -35 22
-57 21 -128 -1 -48 -4 -98 -8 -113 -5 -19 -2 -26 8 -26 31 0 36 -24 25 -116
-12 -95 -20 -114 -50 -114 -15 0 -19 -8 -19 -39 0 -49 -14 -89 -44 -121 -13
-14 -28 -48 -33 -76 l-10 -51 96 -17 c111 -20 285 -75 356 -114 36 -20 55 -39
73 -73 23 -45 23 -49 12 -155 -17 -159 -44 -195 -160 -213 -335 -52 -792 -52
-1120 0 -118 19 -142 50 -158 211 -11 106 -11 114 9 155 14 30 35 52 67 70 66
39 249 99 362 119 l97 17 -8 50 c-5 32 -17 60 -34 77 -28 29 -45 77 -45 127 0
26 -4 33 -19 33 -30 0 -39 20 -49 115 -10 92 -6 115 25 115 11 0 12 8 7 36 -3
19 -7 70 -8 112 -1 67 3 83 26 123 30 51 100 104 157 118 20 5 45 12 56 15 44
11 185 -3 232 -24z"/>
</g>
</svg>
